# xmcd
#
# Track frame offsets:
# 150
# 23624
# 44028
# 59202
# 82666
# 99080
# 119427
# 140800
# 150305
# 176036
# 193770
# 217661
#
# Disc length: 3185 seconds
#
# Revision: 0
# Processed by: cddbd v1.4PL0 Copyright (c) Steve Scherf et al.
# Submitted via: Audion 2.5.0 (http://www.panic.com/audion/)
#
DISCID=9e0c6f0c
DTITLE=Divers - Talenbrut
DYEAR=1900
DGENRE=
TTITLE0=Bronx - X'press
TTITLE1=Sism.x Dub - Urbanabush
TTITLE2=Wolf - Tozdaguit
TTITLE3=Self - Past Our Eyes
TTITLE4=Versus - Mantis
TTITLE5=Kia - Time Out
TTITLE6=Elhea - Hollow Dub
TTITLE7=Wireframe - Tekila
TTITLE8=Ls Piano - Tacos
TTITLE9=Ma 13 - Vomi De Patates
TTITLE10=K Spiler - Good Monday
TTITLE11=DJ Ohm - Les Zulus
EXTD=
EXTT0=
EXTT1=
EXTT2=
EXTT3=
EXTT4=
EXTT5=
EXTT6=
EXTT7=
EXTT8=
EXTT9=
EXTT10=
EXTT11=
PLAYORDER=
